<?xml version="1.0" encoding="UTF-8" standalone="no"?>
<svg width="36px" height="16px" viewBox="0 0 36 16" version="1.1" xmlns="http://www.w3.org/2000/svg" xmlns:xlink="http://www.w3.org/1999/xlink">
	 <path d="M1,14.3435287 C1,14.7060878 1.30384064,15 1.65467358,15 L8.34532642,15 C8.70689266,15 9,14.7048931 9,14.3451252 L9,13.6548748 C9,13.2931974 9.29510689,13 9.6548748,13 L10.3451252,13 C10.7068026,13 11,12.7123299 11,12.3394814 L11,9.66051865 C11,9.29572427 10.7048931,9 10.3451252,9 L9.6548748,9 C9.29319744,9 9,8.70489311 9,8.3451252 L9,7.6548748 C9,7.29319744 9.29510689,7 9.6548748,7 L10.3451252,7 C10.7068026,7 11,6.71232986 11,6.33948135 L11,3.66051865 C11,3.29572427 10.7048931,3 10.3451252,3 L9.6548748,3 C9.29319744,3 9,2.70489311 9,2.3451252 L9,1.6548748 C9,1.29319744 8.69615936,1 8.34532642,1 L1.65467358,1 C1.29310734,1 1,1.2924099 1,1.65647134 L1,14.3435287 Z M9,6.33948135 C9,6.70427573 8.71060753,7 8.33497024,7 L3.66502976,7 C3.29774397,7 3,6.71232986 3,6.33948135 L3,3.66051865 C3,3.29572427 3.28939247,3 3.66502976,3 L8.33497024,3 C8.70225603,3 9,3.28767014 9,3.66051865 L9,6.33948135 Z M9,12.3394814 C9,12.7042757 8.71060753,12.9982478 8.33497024,12.9959735 L3.66502976,12.9676984 C3.29774397,12.9654746 3,12.6657523 3,12.3091521 L3,9.6545198 C3,9.29303849 3.28939247,9 3.66502976,9 L8.33497024,9 C8.70225603,9 9,9.28767014 9,9.66051865 L9,12.3394814 Z M31.6548748,1 C31.2931974,1 31,1.29510689 31,1.6548748 L31,2.3451252 C31,2.70680256 31.2951069,3 31.6548748,3 L32.3451252,3 C32.7068026,3 33,3.28849602 33,3.65612793 L33,12.3438721 C33,12.7062415 32.7048931,13 32.3451252,13 L31.6548748,13 C31.2931974,13 31,13.2951069 31,13.6548748 L31,14.3451252 C31,14.7068026 31.2951069,15 31.6548748,15 L32.3451252,15 C32.7068026,15 33,14.7048931 33,14.3451252 L33,13.6548748 C33,13.2931974 33.2951069,13 33.6548748,13 L34.3451252,13 C34.7068026,13 35,12.711504 35,12.3438721 L35,3.65612793 C35,3.29375848 34.7048931,3 34.3451252,3 L33.6548748,3 C33.2931974,3 33,2.70489311 33,2.3451252 L33,1.6548748 C33,1.29319744 32.7048931,1 32.3451252,1 L31.6548748,1 Z M27.6548748,3 C27.2931974,3 27,3.29510689 27,3.6548748 L27,4.3451252 C27,4.70680256 27.2951069,5 27.6548748,5 L28.3451252,5 C28.7068026,5 29,5.28939247 29,5.66502976 L29,10.3349702 C29,10.702256 28.7048931,11 28.3451252,11 L27.6548748,11 C27.2931974,11 27,11.2951069 27,11.6548748 L27,12.3451252 C27,12.7068026 27.2951069,13 27.6548748,13 L28.3451252,13 C28.7068026,13 29,12.7048931 29,12.3451252 L29,11.6548748 C29,11.2931974 29.2951069,11 29.6548748,11 L30.3451252,11 C30.7068026,11 31,10.7106075 31,10.3349702 L31,5.66502976 C31,5.29774397 30.7048931,5 30.3451252,5 L29.6548748,5 C29.2931974,5 29,4.70489311 29,4.3451252 L29,3.6548748 C29,3.29319744 28.7048931,3 28.3451252,3 L27.6548748,3 Z M25,8.3451252 C25,8.70680256 25.2951069,9 25.6548748,9 L26.3451252,9 C26.7068026,9 27,8.70489311 27,8.3451252 L27,7.6548748 C27,7.29319744 26.7048931,7 26.3451252,7 L25.6548748,7 C25.2931974,7 25,7.29510689 25,7.6548748 L25,8.3451252 Z M13,14.3435287 C13,14.7060878 13.2951069,15 13.6548748,15 L14.3451252,15 C14.7068026,15 15,14.7106075 15,14.3349702 L15,9.66502976 C15,9.29774397 15.2876701,9 15.6605186,9 L18.3394814,9 C18.7042757,9 19,9.29510689 19,9.6548748 L19,10.3451252 C19,10.7068026 19.2951069,11 19.6548748,11 L20.3451252,11 C20.7068026,11 21,11.2876701 21,11.6605186 L21,14.3394814 C21,14.7042757 21.2951069,15 21.6548748,15 L22.3451252,15 C22.7068026,15 23,14.7123299 23,14.3394814 L23,11.6605186 C23,11.2957243 22.7048931,11 22.3451252,11 L21.6548748,11 C21.2931974,11 21,10.7048931 21,10.3451252 L21,9.6548748 C21,9.29319744 20.7048931,9 20.3451252,9 L19.6548748,9 C19.2931974,9 19,8.70489311 19,8.3451252 L19,7.6548748 C19,7.29319744 19.2951069,7 19.6548748,7 L20.3451252,7 C20.7068026,7 21,6.70489311 21,6.3451252 L21,5.6548748 C21,5.29319744 21.2951069,5 21.6548748,5 L22.3451252,5 C22.7068026,5 23,4.71232986 23,4.33948135 L23,1.66051865 C23,1.29572427 22.7048931,1 22.3451252,1 L21.6548748,1 C21.2931974,1 21,1.28767014 21,1.66051865 L21,4.33948135 C21,4.70427573 20.7048931,5 20.3451252,5 L19.6548748,5 C19.2931974,5 19,5.29510689 19,5.6548748 L19,6.3451252 C19,6.70680256 18.7123299,7 18.3394814,7 L15.6605186,7 C15.2957243,7 15,6.71060753 15,6.33497024 L15,1.66502976 C15,1.29774397 14.7048931,1 14.3451252,1 L13.6548748,1 C13.2931974,1 13,1.2924099 13,1.65647134 L13,14.3435287 Z" fill="#202020"></path>
</svg>
