<?xml version="1.0" encoding="UTF-8" standalone="no"?>
<svg width="226px" height="196px" viewBox="0 0 226 196" version="1.1" xmlns="http://www.w3.org/2000/svg" xmlns:xlink="http://www.w3.org/1999/xlink">
	<g stroke="none" stroke-width="1" fill="none" fill-rule="evenodd">
		<g transform="translate(6.000000, 7.000000)" fill="#303030">
			<path d="M200.531794,117.497778 C199.250372,127.113333 200.09156,138.006667 194.742791,142.585926 C182.586699,127.646667 177.664823,115.773333 179.70739,108.341481 C182.184262,99.3251852 172.786674,75.8474074 148.567872,52.5251852 L144.724348,42.0377778 C116.092089,10.5740741 60.9079362,-9.23407407 26.1583511,5.06222222 C70.8065319,11.4355556 93.4541277,35.2155556 93.4541277,35.2155556 C105.833301,39.3125926 104.912812,40.9266667 114.809184,47.0711111 C103.447589,43.0762963 102.800578,42.162963 90.3865709,39.622963 C54.5312128,36.137037 23.1589787,37.3244444 -0.262361702,57.102963 C90.9728085,41.7696296 93.5608511,96.0362963 89.1140426,125.697037 C92.6403617,119.547407 96.0732979,114.36 99.5247624,104.445926 C98.7547234,138.845185 113.572972,138.46 137.632429,148.665926 C153.369684,155.343704 175.658571,182.19037 186.732606,180.422222 C188.172631,180.191852 196.596369,178.388148 201.517504,173.615556 C213.82034,176.902963 209.338699,131.674074 200.531794,117.497778 L200.531794,117.497778 L200.531794,117.497778 Z M146.832135,102.456296 C148.262525,99.6992593 150.29027,96.837037 156.087426,96.0355556 C157.434067,106.005185 163.183791,111.677778 163.193426,126.163704 C156.102248,112.474815 155.162489,113.519259 146.832135,102.456296 L146.832135,102.456296 L146.832135,102.456296 Z"></path>
		</g>
	</g>
</svg>
