<?xml version="1.0" encoding="UTF-8" standalone="no"?>
<svg width="320px" height="320px" viewBox="0 0 320 320" version="1.1" xmlns="http://www.w3.org/2000/svg" xmlns:xlink="http://www.w3.org/1999/xlink">
	<g stroke="none" stroke-width="1" fill="none" fill-rule="evenodd">
		<path d="M271.574,195.622 C269.845,208.603 270.98,223.309 263.763,229.491 C247.361,209.323 240.72,193.294 243.476,183.261 C246.818,171.089 234.138,139.394 201.46,107.909 L196.274,93.751 C157.641,51.275 83.182,24.534 36.295,43.834 C96.538,52.438 127.096,84.541 127.096,84.541 C143.799,90.072 142.557,92.251 155.91,100.546 C140.58,95.153 139.707,93.92 122.957,90.491 C74.578,85.785 32.248,87.388 0.646,114.089 C123.748,93.389 127.24,166.649 121.24,206.691 C125.998,198.389 130.63,191.386 135.287,178.002 C134.248,224.441 154.242,223.921 186.705,237.699 C207.939,246.714 238.013,282.957 252.955,280.57 C254.898,280.259 266.264,277.824 272.904,271.381 C289.504,275.819 283.457,214.76 271.574,195.622 L271.574,195.622 L271.574,195.622 Z M199.118,175.316 C201.048,171.594 203.784,167.73 211.606,166.648 C213.423,180.107 221.181,187.765 221.194,207.321 C211.626,188.841 210.358,190.251 199.118,175.316 L199.118,175.316 L199.118,175.316 Z" fill="#303030"></path>
	</g>
</svg>
