<?xml version="1.0" encoding="UTF-8" standalone="no"?>
<svg width="64px" height="64px" viewBox="0 0 64 64" version="1.1" xmlns="http://www.w3.org/2000/svg" xmlns:xlink="http://www.w3.org/1999/xlink">
	<path d="M32,64 C49.6731128,64 64,49.6731128 64,32 C64,14.3268871 49.6731128,0 32,0 C14.3268871,0 0,14.3268871 0,32 C0,49.6731128 14.3268871,64 32,64 L32,64 Z M47.6846429,38.0760903 C47.4167977,40.0888802 47.5926245,42.3691429 46.474615,43.3277029 C43.9337265,40.200521 42.9049473,37.7151185 43.3318883,36.1594354 C43.8496087,34.2720864 41.8853078,29.3575669 36.8230501,24.4756093 L36.0196696,22.2803177 C30.0349032,15.6941329 18.5002119,11.547764 11.2367908,14.5403567 C20.5692343,15.8744638 25.3030756,20.8522464 25.3030756,20.8522464 C27.8905928,21.7098645 27.6981905,22.0477329 29.7667481,23.3339275 C27.3919269,22.4977071 27.2566875,22.3065223 24.6618893,21.7748331 C17.1673376,21.0451368 10.6098566,21.2936926 5.71428571,25.4338593 C24.7844258,22.2241873 25.3253832,33.5836349 24.3959032,39.7924119 C25.1329807,38.5051319 25.8505393,37.4192705 26.5719706,35.3439927 C26.4110157,42.5446669 29.5083527,42.4640376 34.537304,44.6004075 C37.8267336,45.9982429 42.4855969,51.6179598 44.8003117,51.2478397 C45.1013084,51.1996171 46.8620532,50.8220542 47.8906777,49.8230245 C50.4622389,50.5111657 49.525478,41.0435638 47.6846429,38.0760903 L47.6846429,38.0760903 Z" fill="#303030" fill-rule="evenodd"></path>
</svg>