<?xml version="1.0" encoding="UTF-8" standalone="no"?>
<svg width="64px" height="64px" viewBox="0 0 64 64" version="1.1" xmlns="http://www.w3.org/2000/svg" xmlns:xlink="http://www.w3.org/1999/xlink">
	<path d="M32,64 C49.6731129,64 64,49.6731129 64,32 C64,14.3268871 49.6731129,0 32,0 C14.3268871,0 0,14.3268871 0,32 C0,49.6731129 14.3268871,64 32,64 Z M47.6846429,38.0760903 C47.4167978,40.0888802 47.5926244,42.3691428 46.474615,43.3277028 C43.9337266,40.200521 42.9049472,37.7151185 43.3318883,36.1594355 C43.8496087,34.2720863 41.8853077,29.3575669 36.8230501,24.4756093 L36.0196696,22.2803178 C30.0349031,15.6941329 18.5002119,11.547764 11.2367908,14.5403566 C20.5692342,15.8744638 25.3030756,20.8522463 25.3030756,20.8522463 C27.8905929,21.7098645 27.6981905,22.0477328 29.7667482,23.3339275 C27.3919269,22.4977071 27.2566876,22.3065223 24.6618894,21.7748332 C17.1673376,21.0451368 10.6098566,21.2936925 5.71428571,25.4338592 C24.7844258,22.2241873 25.3253831,33.583635 24.3959032,39.792412 C25.1329808,38.505132 25.8505393,37.4192705 26.5719707,35.3439927 C26.4110157,42.5446669 29.5083527,42.4640375 34.537304,44.6004075 C37.8267335,45.9982429 42.4855968,51.6179599 44.8003117,51.2478397 C45.1013083,51.1996171 46.8620532,50.8220543 47.8906777,49.8230245 C50.4622388,50.5111657 49.525478,41.0435638 47.6846429,38.0760903 Z M36.244898,35.1528914 C36.5446417,34.5702133 36.9695634,33.9653052 38.1843797,33.7959184 C38.4665737,35.9029211 39.6714504,37.1017789 39.6734694,40.1632653 C38.1874859,37.2702264 37.9905558,37.4909615 36.244898,35.1528914 L36.244898,35.1528914 L36.244898,35.1528914 Z" fill="#303030" fill-rule="evenodd"></path>
</svg>