<?xml version="1.0" encoding="UTF-8" standalone="no"?>
<svg version="1.1" width="64px" height="64px" viewBox="0 0 64 64" xmlns="http://www.w3.org/2000/svg" xmlns:xlink="http://www.w3.org/1999/xlink">
	<path d="M31.04,0 C13.9,0 -3.55271368e-15,13.896 -3.55271368e-15,31.044 C-3.55271368e-15,44.756 8.892,56.392 21.228,60.496 C22.78,60.78 23.348,59.824 23.348,59 C23.348,58.264 23.32,56.312 23.308,53.72 C14.672,55.596 12.852,49.56 12.852,49.56 C11.44,45.976 9.404,45.02 9.404,45.02 C6.584,43.096 9.616,43.132 9.616,43.132 C12.732,43.352 14.372,46.332 14.372,46.332 C17.14,51.076 21.636,49.704 23.404,48.912 C23.688,46.904 24.488,45.54 25.376,44.764 C18.484,43.976 11.24,41.316 11.24,29.42 C11.24,26.032 12.448,23.26 14.436,21.092 C14.116,20.304 13.048,17.148 14.74,12.876 C14.74,12.876 17.348,12.04 23.276,16.06 C25.752,15.368 28.404,15.024 31.044,15.012 C33.68,15.024 36.336,15.368 38.816,16.056 C44.744,12.04 47.344,12.872 47.344,12.872 C49.036,17.144 47.972,20.3 47.652,21.088 C49.64,23.256 50.844,26.028 50.844,29.416 C50.844,41.34 43.588,43.964 36.672,44.732 C37.788,45.692 38.78,47.584 38.78,50.48 C38.78,54.628 38.74,57.976 38.74,58.996 C38.74,59.828 39.3,60.792 40.876,60.488 C53.2,56.376 62.084,44.748 62.084,31.04 C62.084,13.9 48.184,0 31.04,0 L31.04,0 Z" fill="#303030" fill-rule="evenodd"></path>
</svg>