<?xml version="1.0" encoding="UTF-8" standalone="no"?>
<svg width="64px" height="64px" viewBox="0 0 64 64" version="1.1" xmlns="http://www.w3.org/2000/svg" xmlns:xlink="http://www.w3.org/1999/xlink">
	<path d="M32,64 C49.6731129,64 64,49.6731129 64,32 C64,14.3268871 49.6731129,0 32,0 C14.3268871,0 0,14.3268871 0,32 C0,49.6731129 14.3268871,64 32,64 L32,64 Z M8.731136,33.869824 C8.631808,33.869824 8.55296,33.946624 8.54016,34.056192 L8.192,36.700672 L8.54016,39.299584 C8.55296,39.409152 8.631808,39.48544 8.731136,39.48544 C8.827392,39.48544 8.905728,39.409664 8.921088,39.300608 L8.921088,39.300096 C8.921088,39.300096 8.921088,39.300096 8.921088,39.300608 L9.33376,36.700672 L8.921088,34.05568 C8.90624,33.946624 8.82688,33.869824 8.731136,33.869824 L8.731136,33.869824 Z M10.689024,32.42496 C10.67264,32.311296 10.591232,32.23296 10.49088,32.23296 C10.390016,32.23296 10.30656,32.313856 10.292736,32.42496 C10.292736,32.425984 9.824768,36.700672 9.824768,36.700672 L10.292736,40.881664 C10.306048,40.993792 10.389504,41.074688 10.49088,41.074688 C10.59072,41.074688 10.672128,40.99584 10.688512,40.882688 L11.220992,36.700672 L10.689024,32.42496 L10.689024,32.42496 Z M18.063872,28.481024 C17.871872,28.481024 17.713152,28.638208 17.703936,28.837888 L17.3312,36.704256 L17.703936,41.787904 C17.713664,41.98656 17.871872,42.143232 18.063872,42.143232 C18.254848,42.143232 18.413056,41.986048 18.42432,41.78688 L18.42432,41.788416 L18.845696,36.704256 L18.42432,28.837888 C18.413056,28.638208 18.254848,28.481024 18.063872,28.481024 L18.063872,28.481024 Z M14.246912,31.215104 C14.099456,31.215104 13.979136,31.332864 13.96736,31.490048 L13.54752,36.702208 L13.96736,41.744896 C13.978624,41.901056 14.099456,42.018816 14.246912,42.018816 C14.392832,42.018816 14.513152,41.901056 14.525952,41.744896 L15.003136,36.702208 L14.525952,31.489024 C14.513152,31.332864 14.392832,31.215104 14.246912,31.215104 L14.246912,31.215104 Z M21.942784,42.14272 C22.180864,42.14272 22.3744,41.95072 22.384128,41.70496 L22.749696,36.706816 L22.38464,26.233856 C22.374912,25.988096 22.181376,25.796096 21.943296,25.796096 C21.703168,25.796096 21.50912,25.988608 21.50144,26.234368 C21.50144,26.23488 21.177344,36.706304 21.177344,36.706304 L21.50144,41.706496 C21.50912,41.950208 21.703168,42.14272 21.942784,42.14272 L21.942784,42.14272 Z M29.883904,42.166272 C30.211584,42.166272 30.48192,41.896448 30.488064,41.564672 L30.488064,41.568256 L30.488064,41.564672 L30.74304,36.709888 L30.488064,24.6144 C30.482432,24.283136 30.211584,24.0128 29.883904,24.0128 C29.555712,24.0128 29.284864,24.282624 29.279744,24.614912 L29.051904,36.705792 C29.051904,36.713472 29.279744,41.567744 29.279744,41.567744 C29.284864,41.896448 29.556224,42.166272 29.883904,42.166272 L29.883904,42.166272 Z M25.883136,42.147328 C26.16832,42.147328 26.398208,41.918464 26.405888,41.626624 L26.405888,41.630208 L26.71616,36.70784 L26.405376,26.159104 C26.397696,25.867264 26.167808,25.638912 25.882624,25.638912 C25.595392,25.638912 25.365504,25.867264 25.35936,26.159104 L25.083392,36.708352 L25.359872,41.629696 C25.366016,41.918464 25.595904,42.147328 25.883136,42.147328 L25.883136,42.147328 Z M16.147968,42.101248 C16.31744,42.101248 16.454656,41.965568 16.467456,41.78688 L16.916992,36.702208 L16.467456,31.865344 C16.455168,31.686656 16.317952,31.552 16.147968,31.552 C15.975936,31.552 15.83872,31.68768 15.827968,31.867392 L15.432192,36.702208 L15.827968,41.786368 C15.839232,41.965568 15.975936,42.101248 16.147968,42.101248 L16.147968,42.101248 Z M12.361216,41.82272 C12.48512,41.82272 12.585472,41.724928 12.599808,41.58976 L13.10464,36.701184 L12.60032,31.628288 C12.585472,31.492608 12.48512,31.394816 12.361216,31.394816 C12.235776,31.394816 12.135424,31.49312 12.122624,31.628288 C12.122624,31.6288 11.678208,36.701184 11.678208,36.701184 L12.122624,41.588736 C12.134912,41.724416 12.235264,41.82272 12.361216,41.82272 L12.361216,41.82272 Z M27.87584,25.983488 C27.56608,25.983488 27.31776,26.22976 27.311616,26.545152 L27.059712,36.708864 L27.311616,41.599488 C27.31776,41.910784 27.565568,42.157056 27.87584,42.157056 C28.185088,42.157056 28.431872,41.911296 28.43904,41.595904 L28.43904,41.6 L28.721664,36.709376 L28.43904,26.544128 C28.431872,26.22976 28.185088,25.983488 27.87584,25.983488 L27.87584,25.983488 Z M19.99616,42.15296 C20.210176,42.15296 20.386816,41.978368 20.397056,41.755648 L20.790272,36.705792 L20.397056,27.040256 C20.386304,26.817024 20.210176,26.642944 19.99616,26.642944 C19.780096,26.642944 19.603968,26.817536 19.594752,27.040256 C19.594752,27.040768 19.246592,36.705792 19.246592,36.705792 L19.595264,41.757696 C19.603968,41.978368 19.780096,42.15296 19.99616,42.15296 L19.99616,42.15296 Z M24.387072,41.676288 L24.387072,41.673728 L24.724992,36.707328 L24.387072,25.8816 C24.37888,25.6128 24.166912,25.401856 23.90528,25.401856 C23.642112,25.401856 23.430144,25.612288 23.422976,25.8816 L23.122944,36.706816 L23.423488,41.675776 C23.430656,41.942016 23.642624,42.152448 23.90528,42.152448 C24.167424,42.152448 24.378368,41.942016 24.387072,41.67424 L24.387072,41.676288 L24.387072,41.676288 Z M49.945088,30.467072 C49.142784,30.467072 48.377344,30.629376 47.68,30.921728 C47.21408,25.644032 42.788352,21.504 37.389824,21.504 C36.068864,21.504 34.781184,21.764096 33.644032,22.203904 C33.202176,22.374912 33.084416,22.55104 33.08032,22.892544 L33.08032,41.478144 C33.084928,41.836544 33.362944,42.13504 33.71264,42.170368 C33.727488,42.171904 49.840128,42.180096 49.944576,42.180096 C53.178368,42.180096 55.80032,39.558144 55.80032,36.32384 C55.80032,33.089536 53.17888,30.467072 49.945088,30.467072 L49.945088,30.467072 Z M31.883264,22.87616 C31.53152,22.87616 31.242752,23.164928 31.237632,23.519744 L30.97344,36.711424 L31.238144,41.499136 C31.242752,41.848832 31.53152,42.137088 31.883264,42.137088 C32.233984,42.137088 32.522752,41.848832 32.527872,41.494016 L32.527872,41.499648 L32.815104,36.711424 L32.527872,23.51872 C32.522752,23.164928 32.233984,22.87616 31.883264,22.87616 L31.883264,22.87616 Z" fill="#303030" fill-rule="evenodd"></path>
</svg>